<?xml version="1.0" standalone="no"?><!DOCTYPE svg PUBLIC "-//W3C//DTD SVG 1.1//EN" "http://www.w3.org/Graphics/SVG/1.1/DTD/svg11.dtd"><svg t="1596029100412" class="icon" viewBox="0 0 1024 1024" version="1.1" xmlns="http://www.w3.org/2000/svg" p-id="1310" xmlns:xlink="http://www.w3.org/1999/xlink" width="200" height="200"><defs><style type="text/css"></style></defs><path d="M384 928a32 32 0 0 1-29.44-19.84L202.56 544H64v-64h160a32 32 0 0 1 29.44 19.84L384 808.96l257.92-692.16A32 32 0 0 1 672 96a32 32 0 0 1 29.76 21.76L823.04 480H960v64h-160a32 32 0 0 1-30.4-21.76L672 224l-257.92 683.2A32 32 0 0 1 384 928z" p-id="1311"></path></svg>