<?xml version="1.0" standalone="no"?><!DOCTYPE svg PUBLIC "-//W3C//DTD SVG 1.1//EN" "http://www.w3.org/Graphics/SVG/1.1/DTD/svg11.dtd"><svg t="1596029119794" class="icon" viewBox="0 0 1024 1024" version="1.1" xmlns="http://www.w3.org/2000/svg" p-id="2085" xmlns:xlink="http://www.w3.org/1999/xlink" width="200" height="200"><defs><style type="text/css"></style></defs><path d="M832 448a64 64 0 0 0 64-64V192a64 64 0 0 0-64-64h-192a64 64 0 0 0-64 64v192a64 64 0 0 0 64 64h64v131.2a160 160 0 0 0-124.8 124.8H448v-64a64 64 0 0 0-64-64h-64v-131.2a160 160 0 1 0-64 0V576H192a64 64 0 0 0-64 64v192a64 64 0 0 0 64 64h192a64 64 0 0 0 64-64v-64h131.2a160 160 0 1 0 188.8-188.8V448zM192 288a96 96 0 1 1 96 96 96 96 0 0 1-96-96z m192 544H192v-192h192z m448-96a96 96 0 1 1-96-96 96 96 0 0 1 96 96zM640 192h192v192h-192z" p-id="2086"></path></svg>