<?xml version="1.0" standalone="no"?><!DOCTYPE svg PUBLIC "-//W3C//DTD SVG 1.1//EN" "http://www.w3.org/Graphics/SVG/1.1/DTD/svg11.dtd"><svg t="1596029127993" class="icon" viewBox="0 0 1024 1024" version="1.1" xmlns="http://www.w3.org/2000/svg" p-id="2473" xmlns:xlink="http://www.w3.org/1999/xlink" width="200" height="200"><defs><style type="text/css"></style></defs><path d="M960 960H128a64 64 0 0 1-64-64V64h64v832h832z" p-id="2474"></path><path d="M320 512a64 64 0 1 1-64 64 64 64 0 0 1 64-64m0-64a128 128 0 1 0 128 128 128 128 0 0 0-128-128zM672 192a128 128 0 1 1-128 128 128 128 0 0 1 128-128m0-64a192 192 0 1 0 192 192 192 192 0 0 0-192-192zM784 672a48 48 0 1 1-48 48 48 48 0 0 1 48-48m0-64a112 112 0 1 0 112 112 112 112 0 0 0-112-112z" p-id="2475"></path></svg>