<?xml version="1.0" standalone="no"?><!DOCTYPE svg PUBLIC "-//W3C//DTD SVG 1.1//EN" "http://www.w3.org/Graphics/SVG/1.1/DTD/svg11.dtd"><svg t="1596029130306" class="icon" viewBox="0 0 1024 1024" version="1.1" xmlns="http://www.w3.org/2000/svg" p-id="2603" xmlns:xlink="http://www.w3.org/1999/xlink" width="200" height="200"><defs><style type="text/css"></style></defs><path d="M321.92 572.16A136 136 0 0 0 352 576a128 128 0 0 0 71.36-21.76l103.04 91.84a124.16 124.16 0 0 0-6.4 101.44A128 128 0 1 0 723.84 608l81.28-162.88a120.96 120.96 0 0 0 93.12-16.96 128 128 0 1 0-150.08-12.16l-81.28 162.88A123.52 123.52 0 0 0 640 576a128 128 0 0 0-71.36 21.76l-103.04-91.84a124.16 124.16 0 0 0 6.4-101.44 128 128 0 1 0-206.4 137.28L128 800V64H64v832a64 64 0 0 0 64 64h832v-64H149.44zM832 256a64 64 0 1 1-64 64 64 64 0 0 1 64-64z m-128 448a64 64 0 1 1-64-64 64 64 0 0 1 64 64zM352 384a64 64 0 1 1-64 64 64 64 0 0 1 64-64z" p-id="2604"></path></svg>