<?xml version="1.0" standalone="no"?><!DOCTYPE svg PUBLIC "-//W3C//DTD SVG 1.1//EN" "http://www.w3.org/Graphics/SVG/1.1/DTD/svg11.dtd"><svg t="1596029122409" class="icon" viewBox="0 0 1024 1024" version="1.1" xmlns="http://www.w3.org/2000/svg" p-id="2214" xmlns:xlink="http://www.w3.org/1999/xlink" width="200" height="200"><defs><style type="text/css"></style></defs><path d="M640 192a317.44 317.44 0 0 0-128 26.88A317.44 317.44 0 0 0 384 192a320 320 0 0 0 0 640 317.44 317.44 0 0 0 128-26.88 317.44 317.44 0 0 0 128 26.88 320 320 0 0 0 0-640z m-256 576a256 256 0 0 1 0-512 253.12 253.12 0 0 1 56.32 6.4 320 320 0 0 0 0 499.2A253.12 253.12 0 0 1 384 768z m256-256a256 256 0 0 1-128 221.44 256 256 0 0 1 0-442.88A256 256 0 0 1 640 512z m0 256a253.12 253.12 0 0 1-56.32-6.4 320 320 0 0 0 0-499.2A253.12 253.12 0 0 1 640 256a256 256 0 0 1 0 512z" p-id="2215"></path></svg>