<?xml version="1.0" standalone="no"?><!DOCTYPE svg PUBLIC "-//W3C//DTD SVG 1.1//EN" "http://www.w3.org/Graphics/SVG/1.1/DTD/svg11.dtd"><svg t="1596029136250" class="icon" viewBox="0 0 1024 1024" version="1.1" xmlns="http://www.w3.org/2000/svg" p-id="2861" xmlns:xlink="http://www.w3.org/1999/xlink" width="200" height="200"><defs><style type="text/css"></style></defs><path d="M960 960H128a64 64 0 0 1-64-64V64h64v832h832z" p-id="2862"></path><path d="M320 704m-64 0a64 64 0 1 0 128 0 64 64 0 1 0-128 0Z" p-id="2863"></path><path d="M448 480m-64 0a64 64 0 1 0 128 0 64 64 0 1 0-128 0Z" p-id="2864"></path><path d="M704 480m-64 0a64 64 0 1 0 128 0 64 64 0 1 0-128 0Z" p-id="2865"></path><path d="M832 192m-64 0a64 64 0 1 0 128 0 64 64 0 1 0-128 0Z" p-id="2866"></path><path d="M448 256m-64 0a64 64 0 1 0 128 0 64 64 0 1 0-128 0Z" p-id="2867"></path></svg>