<?xml version="1.0" standalone="no"?><!DOCTYPE svg PUBLIC "-//W3C//DTD SVG 1.1//EN" "http://www.w3.org/Graphics/SVG/1.1/DTD/svg11.dtd"><svg t="1596029117123" class="icon" viewBox="0 0 1024 1024" version="1.1" xmlns="http://www.w3.org/2000/svg" p-id="1956" xmlns:xlink="http://www.w3.org/1999/xlink" width="200" height="200"><defs><style type="text/css"></style></defs><path d="M960 320V64h-256v256h96v128h-64v64h224v-64h-96v-128z m-192-192h128v128h-128zM640 749.12L594.88 704 512 786.88 429.12 704 384 749.12 466.88 832 384 914.88 429.12 960 512 877.12 594.88 960 640 914.88 557.12 832 640 749.12zM640 448h-256v64h96v160h64v-160h96v-64zM224 315.52a128 128 0 1 0-64 0V448H64v64h224v-64H224zM128 192a64 64 0 1 1 64 64 64 64 0 0 1-64-64z" p-id="1957"></path></svg>