<?xml version="1.0" standalone="no"?><!DOCTYPE svg PUBLIC "-//W3C//DTD SVG 1.1//EN" "http://www.w3.org/Graphics/SVG/1.1/DTD/svg11.dtd"><svg t="1596029138630" class="icon" viewBox="0 0 1024 1024" version="1.1" xmlns="http://www.w3.org/2000/svg" p-id="2995" xmlns:xlink="http://www.w3.org/1999/xlink" width="200" height="200"><defs><style type="text/css"></style></defs><path d="M352 256m-32 0a32 32 0 1 0 64 0 32 32 0 1 0-64 0Z" p-id="2996"></path><path d="M352 512m-32 0a32 32 0 1 0 64 0 32 32 0 1 0-64 0Z" p-id="2997"></path><path d="M352 768m-32 0a32 32 0 1 0 64 0 32 32 0 1 0-64 0Z" p-id="2998"></path><path d="M768 96H256a64 64 0 0 0-64 64v704a64 64 0 0 0 64 64h256v-64H256v-192h576V160a64 64 0 0 0-64-64z m0 512H256v-192h512z m0-256H256V160h512z" p-id="2999"></path><path d="M935.68 946.56l-90.56-90.56 90.56-90.56-45.12-45.12L800 810.56l-90.56-90.24-45.12 45.12 90.56 90.56-90.56 90.56 45.12 45.12L800 901.12l90.56 90.56 45.12-45.12z" p-id="3000"></path></svg>