<?xml version="1.0" standalone="no"?><!DOCTYPE svg PUBLIC "-//W3C//DTD SVG 1.1//EN" "http://www.w3.org/Graphics/SVG/1.1/DTD/svg11.dtd"><svg t="1596029141198" class="icon" viewBox="0 0 1024 1024" version="1.1" xmlns="http://www.w3.org/2000/svg" p-id="3128" xmlns:xlink="http://www.w3.org/1999/xlink" width="200" height="200"><defs><style type="text/css"></style></defs><path d="M960 736h-160v-160h-64v160h-160v64h160v160h64v-160h160v-64z" p-id="3129"></path><path d="M772.064 378.88l37.792 6.816a185.344 185.344 0 0 1 84 36.608A173.504 173.504 0 0 1 958.496 576h64.96a240.064 240.064 0 0 0-196.8-252.32 320.224 320.224 0 0 0-254.08-253.856 320.064 320.064 0 0 0-375.04 253.856A240.16 240.16 0 0 0 1.888 589.12 245.888 245.888 0 0 0 248.736 800H448v-64H246.336a180.224 180.224 0 0 1-179.296-143.552 176.192 176.192 0 0 1 141.888-205.76l43.168-7.84 6.848-35.52a262.592 262.592 0 0 1 215.744-212.544 255.072 255.072 0 0 1 96.448 4.16 260.608 260.608 0 0 1 193.696 206.272z" p-id="3130"></path></svg>