<?xml version="1.0" standalone="no"?><!DOCTYPE svg PUBLIC "-//W3C//DTD SVG 1.1//EN" "http://www.w3.org/Graphics/SVG/1.1/DTD/svg11.dtd"><svg t="1596712389557" class="icon" viewBox="0 0 1080 1024" version="1.1" xmlns="http://www.w3.org/2000/svg" p-id="3021" xmlns:xlink="http://www.w3.org/1999/xlink" width="210.9375" height="200"><defs><style type="text/css"></style></defs><path d="M977.98165634 409.99709156C973.47834259 396.25913428 960.66384992 387.02449075 946.24184457 387.02449075L656.16002933 387.02449075 566.51558233 113.05199792C562.16047855 99.35964353 549.39158875 90.125 534.87837765 90.125 520.45637232 90.125 507.64187964 99.35964353 503.24117297 112.94939084L413.49411807 387.02449075 123.46930704 387.02449075C109.00169882 387.02449075 96.22140769 396.25913428 91.77509815 409.99709156 87.27178439 423.59823938 92.20832834 438.63588723 103.87134121 447.00407037L338.55669582 616.26026599 248.95785171 890.38096878C244.40893509 904.02772031 249.34547903 918.92855872 261.05409479 927.3879476 272.61450058 935.80173444 288.57561304 935.80173444 300.19302222 927.3879476L534.87837765 758.02914572 769.60933514 927.3879476C775.3667366 931.56063907 782.2414155 933.72679004 789.16169809 933.72679004 796.02497647 933.72679004 802.94525907 931.56063907 808.7482634 927.3879476 820.41127545 918.92855872 825.34782022 904.02772031 820.79890276 890.38096878L731.29126523 616.26026599 965.8398104 447.00407037C977.49142276 438.63588723 982.38236383 423.59823938 977.98165634 409.99709156Z" p-id="3022"></path></svg>