<?xml version="1.0" standalone="no"?><!DOCTYPE svg PUBLIC "-//W3C//DTD SVG 1.1//EN" "http://www.w3.org/Graphics/SVG/1.1/DTD/svg11.dtd"><svg t="1595162667426" class="icon" viewBox="0 0 1025 1024" version="1.1" xmlns="http://www.w3.org/2000/svg" p-id="709" xmlns:xlink="http://www.w3.org/1999/xlink" width="200.1953125" height="200"><defs><style type="text/css"></style></defs><path d="M499.64 355.49c24.69 0 41.19-16.53 41.19-41.16 0-24.9-16.47-41.01-41.19-41.01s-49.53 16.11-49.53 41.01C450.14 338.96 474.95 355.49 499.64 355.49zM269.27 273.32c-24.69 0-49.65 16.11-49.65 41.01 0 24.63 24.96 41.16 49.65 41.16 24.6 0 41.07-16.53 41.07-41.16C310.31 289.43 293.87 273.32 269.27 273.32zM992 618.98c0-130.2-120.78-241.14-269.04-252.69 0.21-1.62 0.3-3.3-0.06-4.98-29.73-138.6-178.77-243.09-346.71-243.09C186.41 118.22 32 250.55 32 413.21c0 87.27 44.55 165.9 128.97 227.91l-29.43 88.47c-1.89 5.76-0.18 12.09 4.41 16.08 2.79 2.4 6.3 3.66 9.84 3.66 2.28 0 4.59-0.54 6.72-1.59L263 692.45l13.62 2.76c34.02 6.99 63.39 13.05 99.57 13.05 10.65 0 21.45-0.48 32.04-1.38 4.29-0.36 7.92-2.52 10.38-5.64 39.84 99.69 149.64 171.66 278.85 171.66 33.09 0 66.6-7.98 96.66-15.51l85.17 46.56c2.25 1.23 4.74 1.86 7.2 1.86 3.36 0 6.72-1.14 9.42-3.33 4.74-3.84 6.69-10.17 4.92-15.96l-21.75-72.33C952.01 756.56 992 687.62 992 618.98zM405.68 676.97c-9.75 0.84-19.65 1.26-29.46 1.26-33.12 0-61.14-5.73-93.54-12.42L263.84 662c-3.24-0.69-6.66-0.24-9.63 1.29l-82.77 41.43 21.51-64.62c2.1-6.33-0.21-13.23-5.64-17.04C104.15 565.1 62 494.48 62 413.21c0-146.1 140.94-264.99 314.19-264.99 153.15 0 288.75 93.18 316.74 217.11-160.59 2.1-290.52 114.99-290.52 253.65 0 20.16 3.06 39.69 8.22 58.53C409.07 677.12 407.42 676.82 405.68 676.97zM852.74 796.58c-5.01 3.78-7.14 10.29-5.34 16.29l14.19 47.19-58.23-31.86c-2.22-1.23-4.71-1.86-7.2-1.86-1.23 0-2.46 0.15-3.66 0.48-31.23 7.89-63.54 16.02-95.01 16.02-146.16 0-265.05-100.44-265.05-223.89 0-123.45 118.89-223.86 265.05-223.86 143.37 0 264.51 102.51 264.51 223.86C962 680.51 923.21 743.6 852.74 796.58zM606.68 511.97c-16.47 0-32.94 16.59-32.94 33.03 0 16.56 16.47 32.91 32.94 32.91 24.75 0 41.1-16.35 41.1-32.91C647.78 528.53 631.43 511.97 606.68 511.97zM787.64 511.97c-16.23 0-32.7 16.59-32.7 33.03 0 16.56 16.47 32.91 32.7 32.91 24.66 0 41.31-16.35 41.31-32.91C828.95 528.53 812.33 511.97 787.64 511.97z" p-id="710"></path></svg>